<svg xmlns="http://www.w3.org/2000/svg" xmlns:xlink="http://www.w3.org/1999/xlink" contentStyleType="text/css" data-diagram-type="CLASS" height="332px" preserveAspectRatio="none" style="width:757px;height:332px;background:#FFFFFF;" version="1.1" viewBox="0 0 757 332" width="757px" zoomAndPan="magnify"><defs/><g><!--class file--><g class="entity" data-entity="file" data-source-line="11" data-uid="ent0002" id="entity_file"><rect fill="#FFFFFF" height="26.2969" rx="2.5" ry="2.5" style="stroke:#000000;stroke-width:1;" width="27.3213" x="12" y="12"/><text fill="#000000" font-family="Verdana" font-size="14" lengthAdjust="spacing" textLength="21.3213" x="15" y="29.9951">file</text></g><!--class byte--><g class="entity" data-entity="byte" data-source-line="12" data-uid="ent0003" id="entity_byte"><rect fill="#FFFFFF" height="26.2969" rx="2.5" ry="2.5" style="stroke:#000000;stroke-width:1;" width="37.2744" x="115" y="12"/><text fill="#000000" font-family="Verdana" font-size="14" lengthAdjust="spacing" textLength="31.2744" x="118" y="29.9951">byte</text></g><!--class part--><g class="entity" data-entity="part" data-source-line="13" data-uid="ent0004" id="entity_part"><rect fill="#FFFFFF" height="26.2969" rx="2.5" ry="2.5" style="stroke:#000000;stroke-width:1;" width="34.7109" x="280.5" y="57"/><text fill="#000000" font-family="Verdana" font-size="14" lengthAdjust="spacing" textLength="28.7109" x="283.5" y="74.9951">part</text></g><!--class token--><g class="entity" data-entity="token" data-source-line="14" data-uid="ent0005" id="entity_token"><rect fill="#FFFFFF" height="26.2969" rx="2.5" ry="2.5" style="stroke:#000000;stroke-width:1;" width="45.6484" x="503.5" y="18"/><text fill="#000000" font-family="Verdana" font-size="14" lengthAdjust="spacing" textLength="39.6484" x="506.5" y="35.9951">token</text></g><!--class grouping--><g class="entity" data-entity="grouping" data-source-line="15" data-uid="ent0006" id="entity_grouping"><rect fill="#FFFFFF" height="26.2969" rx="2.5" ry="2.5" style="stroke:#000000;stroke-width:1;" width="68.6172" x="669" y="54"/><text fill="#000000" font-family="Verdana" font-size="14" lengthAdjust="spacing" textLength="62.6172" x="672" y="71.9951">grouping</text></g><!--class call--><g class="entity" data-entity="call" data-source-line="16" data-uid="ent0007" id="entity_call"><rect fill="#FFFFFF" height="26.2969" rx="2.5" ry="2.5" style="stroke:#000000;stroke-width:1;" width="30.0557" x="398" y="118"/><text fill="#000000" font-family="Verdana" font-size="14" lengthAdjust="spacing" textLength="24.0557" x="401" y="135.9951">call</text></g><!--class statement--><g class="entity" data-entity="statement" data-source-line="17" data-uid="ent0008" id="entity_statement"><rect fill="#FFFFFF" height="26.2969" rx="2.5" ry="2.5" style="stroke:#000000;stroke-width:1;" width="78.0781" x="259" y="118"/><text fill="#000000" font-family="Verdana" font-size="14" lengthAdjust="spacing" textLength="72.0781" x="262" y="135.9951">statement</text></g><!--class chunk--><g class="entity" data-entity="chunk" data-source-line="18" data-uid="ent0009" id="entity_chunk"><rect fill="#FFFFFF" height="26.2969" rx="2.5" ry="2.5" style="stroke:#000000;stroke-width:1;" width="48.4238" x="109.5" y="265"/><text fill="#000000" font-family="Verdana" font-size="14" lengthAdjust="spacing" textLength="42.4238" x="112.5" y="282.9951">chunk</text></g><!--class replacement\ntext--><g class="entity" data-entity="replacement\ntext" data-source-line="19" data-uid="ent0010" id="entity_replacement\ntext"><rect fill="#FFFFFF" height="42.5938" rx="2.5" ry="2.5" style="stroke:#000000;stroke-width:1;" width="94.6484" x="656" y="129.5"/><text fill="#000000" font-family="Verdana" font-size="14" lengthAdjust="spacing" textLength="88.6484" x="659" y="147.4951">replacement</text><text fill="#000000" font-family="Verdana" font-size="14" lengthAdjust="spacing" textLength="27.877" x="689.3857" y="163.792">text</text></g><!--class argument--><g class="entity" data-entity="argument" data-source-line="20" data-uid="ent0011" id="entity_argument"><rect fill="#FFFFFF" height="26.2969" rx="2.5" ry="2.5" style="stroke:#000000;stroke-width:1;" width="74.708" x="489" y="118"/><text fill="#000000" font-family="Verdana" font-size="14" lengthAdjust="spacing" textLength="68.708" x="492" y="135.9951">argument</text></g><!--class edge--><g class="entity" data-entity="edge" data-source-line="21" data-uid="ent0012" id="entity_edge"><rect fill="#FFFFFF" height="26.2969" rx="2.5" ry="2.5" style="stroke:#000000;stroke-width:1;" width="41" x="277.5" y="293"/><text fill="#000000" font-family="Verdana" font-size="14" lengthAdjust="spacing" textLength="35" x="280.5" y="310.9951">edge</text></g><!--class segment--><g class="entity" data-entity="segment" data-source-line="23" data-uid="ent0013" id="entity_segment"><rect fill="#FFFFFF" height="26.2969" rx="2.5" ry="2.5" style="stroke:#000000;stroke-width:1;" width="67.4072" x="100" y="118"/><text fill="#000000" font-family="Verdana" font-size="14" font-style="italic" lengthAdjust="spacing" textLength="61.4072" x="103" y="135.9951">segment</text></g><!--reverse link segment to part--><g class="link" data-entity-1="segment" data-entity-2="part" data-source-line="24" data-uid="lnk14" id="link_segment_part"><path codeLine="24" d="M184.2321,112.3349 C218.3621,99.5249 253.54,86.32 280.11,76.35" fill="none" id="segment-backto-part" style="stroke:#000000;stroke-width:1;stroke-dasharray:7.0,7.0;"/><polygon fill="none" points="167.38,118.66,186.3405,117.9523,182.1237,106.7175,167.38,118.66" style="stroke:#000000;stroke-width:1;"/></g><!--reverse link segment to replacement\ntext--><g class="link" data-entity-1="segment" data-entity-2="replacement\ntext" data-source-line="25" data-uid="lnk15" id="link_segment_replacement\ntext"><path codeLine="25" d="M168.0359,153.9508 C197.2059,173.1908 241.28,197 297,197 C297,197 297,197 527.5,197 C572.11,197 621.07,182.85 655.84,170.25" fill="none" id="segment-backto-replacement\ntext" style="stroke:#000000;stroke-width:1;stroke-dasharray:7.0,7.0;"/><polygon fill="none" points="153.01,144.04,164.7323,158.9594,171.3395,148.9422,153.01,144.04" style="stroke:#000000;stroke-width:1;"/></g><!--link file to byte--><g class="link" data-entity-1="file" data-entity-2="byte" data-source-line="27" data-uid="lnk16" id="link_file_byte"><path codeLine="27" d="M47.08,25 C65.83,25 75.21,25 96.64,25" fill="none" id="file-byte" style="stroke:#000000;stroke-width:1;"/><line style="stroke:#000000;stroke-width:1;" x1="43.08" x2="43.08" y1="29" y2="21"/><line style="stroke:#000000;stroke-width:1;" x1="46.08" x2="46.08" y1="29" y2="21"/><line style="stroke:#000000;stroke-width:1;" x1="47.08" x2="39.08" y1="25" y2="25"/><line style="stroke:#000000;stroke-width:1;" x1="106.64" x2="114.64" y1="25" y2="19"/><line style="stroke:#000000;stroke-width:1;" x1="106.64" x2="114.64" y1="25" y2="31"/><line style="stroke:#000000;stroke-width:1;" x1="106.64" x2="114.64" y1="25" y2="25"/><ellipse cx="100.64" cy="25" fill="none" rx="4" ry="4" style="stroke:#000000;stroke-width:1;"/></g><!--link byte to part--><g class="link" data-entity-1="byte" data-entity-2="part" data-source-line="28" data-uid="lnk17" id="link_byte_part"><path codeLine="28" d="M169.5483,34.7097 C201.1383,43.4497 241.7304,54.694 272.5904,63.244" fill="none" id="byte-part" style="stroke:#000000;stroke-width:1;"/><line style="stroke:#000000;stroke-width:1;" x1="159.9103" x2="150.6001" y1="32.0432" y2="35.6928"/><line style="stroke:#000000;stroke-width:1;" x1="159.9103" x2="153.7999" y1="32.0432" y2="24.1272"/><line style="stroke:#000000;stroke-width:1;" x1="159.9103" x2="152.2" y1="32.0432" y2="29.91"/><ellipse cx="165.6931" cy="33.6431" fill="none" rx="4" ry="4" style="stroke:#000000;stroke-width:1;"/><line style="stroke:#000000;stroke-width:1;" x1="277.5132" x2="275.3772" y1="60.4572" y2="68.1668"/><line style="stroke:#000000;stroke-width:1;" x1="274.6221" x2="272.4861" y1="59.6562" y2="67.3658"/><line style="stroke:#000000;stroke-width:1;" x1="272.5904" x2="280.3" y1="63.244" y2="65.38"/></g><!--link byte to token--><g class="link" data-entity-1="byte" data-entity-2="token" data-source-line="29" data-uid="lnk18" id="link_byte_token"><path codeLine="29" d="M160.2697,25.2316 C179.2597,25.4016 202.26,25.64 229,26 C331.44,27.41 438.7827,29.3677 488.1827,30.2977" fill="none" id="byte-token" style="stroke:#000000;stroke-width:1;"/><line style="stroke:#000000;stroke-width:1;" x1="160.2697" x2="152.2163" y1="25.2316" y2="31.1598"/><line style="stroke:#000000;stroke-width:1;" x1="160.2697" x2="152.3237" y1="25.2316" y2="19.1602"/><line style="stroke:#000000;stroke-width:1;" x1="160.2697" x2="152.27" y1="25.2316" y2="25.16"/><line style="stroke:#000000;stroke-width:1;" x1="162.2338" x2="162.3054" y1="29.2494" y2="21.2497"/><line style="stroke:#000000;stroke-width:1;" x1="492.1819" x2="503.18" y1="30.373" y2="30.58"/><ellipse cx="492.1819" cy="30.373" fill="none" rx="4" ry="4" style="stroke:#000000;stroke-width:1;"/><line style="stroke:#000000;stroke-width:1;" x1="499.256" x2="499.1054" y1="26.5054" y2="34.504"/></g><!--link call to token--><g class="link" data-entity-1="call" data-entity-2="token" data-source-line="30" data-uid="lnk19" id="link_call_token"><path codeLine="30" d="M434.0746,112.9974 C455.2846,93.9674 483.2735,68.8704 504.8335,49.5404" fill="none" id="call-token" style="stroke:#000000;stroke-width:1;"/><line style="stroke:#000000;stroke-width:1;" x1="433.7686" x2="428.426" y1="118.646" y2="112.6914"/><line style="stroke:#000000;stroke-width:1;" x1="436.0015" x2="430.659" y1="116.6426" y2="110.688"/><line style="stroke:#000000;stroke-width:1;" x1="434.0746" x2="428.12" y1="112.9974" y2="118.34"/><line style="stroke:#000000;stroke-width:1;" x1="504.8335" x2="506.7847" y1="49.5404" y2="39.7326"/><line style="stroke:#000000;stroke-width:1;" x1="504.8335" x2="514.7953" y1="49.5404" y2="48.6674"/><line style="stroke:#000000;stroke-width:1;" x1="504.8335" x2="510.79" y1="49.5404" y2="44.2"/><line style="stroke:#000000;stroke-width:1;" x1="500.6742" x2="506.0146" y1="47.8973" y2="53.8538"/></g><!--link token to grouping--><g class="link" data-entity-1="token" data-entity-2="grouping" data-source-line="31" data-uid="lnk20" id="link_token_grouping"><path codeLine="31" d="M546.9009,49.3443 C559.4609,60.5443 573.36,70.56 594,77 C618.2,84.56 632.1226,84.6011 653.8826,79.9411" fill="none" id="token-grouping" style="stroke:#000000;stroke-width:1;"/><line style="stroke:#000000;stroke-width:1;" x1="541.2533" x2="546.5776" y1="49.6676" y2="43.6967"/><line style="stroke:#000000;stroke-width:1;" x1="543.4923" x2="548.8167" y1="51.6642" y2="45.6934"/><line style="stroke:#000000;stroke-width:1;" x1="546.9009" x2="540.93" y1="49.3443" y2="44.02"/><line style="stroke:#000000;stroke-width:1;" x1="657.7939" x2="668.55" y1="79.1035" y2="76.8"/><ellipse cx="657.7939" cy="79.1035" fill="none" rx="4" ry="4" style="stroke:#000000;stroke-width:1;"/><line style="stroke:#000000;stroke-width:1;" x1="663.8011" x2="665.4763" y1="73.7263" y2="81.5489"/><text fill="#000000" font-family="Verdana" font-size="13" lengthAdjust="spacing" textLength="30.2783" x="595" y="73.0669">start</text></g><!--link token to grouping--><g class="link" data-entity-1="token" data-entity-2="grouping" data-source-line="32" data-uid="lnk21" id="link_token_grouping"><path codeLine="32" d="M564.3521,38.5834 C594.4321,44.7734 619.0476,49.8378 654.1476,57.0578" fill="none" id="token-grouping-1" style="stroke:#000000;stroke-width:1;"/><line style="stroke:#000000;stroke-width:1;" x1="560.4342" x2="549.66" y1="37.7772" y2="35.56"/><ellipse cx="560.4342" cy="37.7772" fill="none" rx="4" ry="4" style="stroke:#000000;stroke-width:1;"/><line style="stroke:#000000;stroke-width:1;" x1="552.7717" x2="554.3841" y1="40.2841" y2="32.4483"/><line style="stroke:#000000;stroke-width:1;" x1="658.0656" x2="668.84" y1="57.8637" y2="60.08"/><ellipse cx="658.0656" cy="57.8637" fill="none" rx="4" ry="4" style="stroke:#000000;stroke-width:1;"/><line style="stroke:#000000;stroke-width:1;" x1="665.7279" x2="664.1161" y1="55.3561" y2="63.1921"/><text fill="#000000" font-family="Verdana" font-size="13" lengthAdjust="spacing" textLength="28.0757" x="596" y="41.0669">stop</text></g><!--link statement to call--><g class="link" data-entity-1="statement" data-entity-2="call" data-source-line="33" data-uid="lnk22" id="link_statement_call"><path codeLine="33" d="M345.26,131 C366.13,131 374.72,131 389.84,131" fill="none" id="statement-call" style="stroke:#000000;stroke-width:1;"/><line style="stroke:#000000;stroke-width:1;" x1="341.26" x2="341.26" y1="135" y2="127"/><line style="stroke:#000000;stroke-width:1;" x1="344.26" x2="344.26" y1="135" y2="127"/><line style="stroke:#000000;stroke-width:1;" x1="345.26" x2="337.26" y1="131" y2="131"/><line style="stroke:#000000;stroke-width:1;" x1="389.84" x2="397.84" y1="131" y2="125"/><line style="stroke:#000000;stroke-width:1;" x1="389.84" x2="397.84" y1="131" y2="137"/><line style="stroke:#000000;stroke-width:1;" x1="389.84" x2="397.84" y1="131" y2="131"/><line style="stroke:#000000;stroke-width:1;" x1="387.84" x2="387.84" y1="127" y2="135"/></g><!--link chunk to statement--><g class="link" data-entity-1="chunk" data-entity-2="statement" data-source-line="34" data-uid="lnk23" id="link_chunk_statement"><path codeLine="34" d="M160.0431,254.8964 C190.8031,227.0664 238.0916,184.2956 269.0316,156.3056" fill="none" id="chunk-statement" style="stroke:#000000;stroke-width:1;"/><line style="stroke:#000000;stroke-width:1;" x1="157.077" x2="148.92" y1="257.58" y2="264.96"/><ellipse cx="157.077" cy="257.58" fill="none" rx="4" ry="4" style="stroke:#000000;stroke-width:1;"/><line style="stroke:#000000;stroke-width:1;" x1="154.5698" x2="149.2025" y1="265.2425" y2="259.3102"/><line style="stroke:#000000;stroke-width:1;" x1="276.4474" x2="278.3548" y1="149.597" y2="139.7805"/><line style="stroke:#000000;stroke-width:1;" x1="276.4474" x2="286.4052" y1="149.597" y2="148.6795"/><line style="stroke:#000000;stroke-width:1;" x1="276.4474" x2="282.38" y1="149.597" y2="144.23"/><ellipse cx="271.9979" cy="153.6222" fill="none" rx="4" ry="4" style="stroke:#000000;stroke-width:1;"/></g><!--link call to argument--><g class="link" data-entity-1="call" data-entity-2="argument" data-source-line="35" data-uid="lnk24" id="link_call_argument"><path codeLine="35" d="M436.12,131 C451.24,131 449.85,131 470.54,131" fill="none" id="call-argument" style="stroke:#000000;stroke-width:1;"/><line style="stroke:#000000;stroke-width:1;" x1="432.12" x2="432.12" y1="135" y2="127"/><line style="stroke:#000000;stroke-width:1;" x1="435.12" x2="435.12" y1="135" y2="127"/><line style="stroke:#000000;stroke-width:1;" x1="436.12" x2="428.12" y1="131" y2="131"/><line style="stroke:#000000;stroke-width:1;" x1="480.54" x2="488.54" y1="131" y2="125"/><line style="stroke:#000000;stroke-width:1;" x1="480.54" x2="488.54" y1="131" y2="137"/><line style="stroke:#000000;stroke-width:1;" x1="480.54" x2="488.54" y1="131" y2="131"/><ellipse cx="474.54" cy="131" fill="none" rx="4" ry="4" style="stroke:#000000;stroke-width:1;"/></g><!--link argument to replacement\ntext--><g class="link" data-entity-1="argument" data-entity-2="replacement\ntext" data-source-line="36" data-uid="lnk25" id="link_argument_replacement\ntext"><path codeLine="36" d="M572.1385,136.1064 C598.7985,139.1464 612.2369,140.688 640.9569,143.968" fill="none" id="argument-replacement\ntext" style="stroke:#000000;stroke-width:1;"/><line style="stroke:#000000;stroke-width:1;" x1="567.7111" x2="568.6174" y1="139.6274" y2="131.6789"/><line style="stroke:#000000;stroke-width:1;" x1="570.6918" x2="571.5981" y1="139.9673" y2="132.0188"/><line style="stroke:#000000;stroke-width:1;" x1="572.1385" x2="564.19" y1="136.1064" y2="135.2"/><line style="stroke:#000000;stroke-width:1;" x1="644.931" x2="655.86" y1="144.4218" y2="145.67"/><ellipse cx="644.931" cy="144.4218" fill="none" rx="4" ry="4" style="stroke:#000000;stroke-width:1;"/><line style="stroke:#000000;stroke-width:1;" x1="652.3397" x2="651.432" y1="141.242" y2="149.1903"/></g><!--link segment to statement--><g class="link" data-entity-1="segment" data-entity-2="statement" data-source-line="37" data-uid="lnk26" id="link_segment_statement"><path codeLine="37" d="M175.38,131 C201.82,131 212.98,131 240.74,131" fill="none" id="segment-statement" style="stroke:#000000;stroke-width:1;"/><line style="stroke:#000000;stroke-width:1;" x1="171.38" x2="171.38" y1="135" y2="127"/><line style="stroke:#000000;stroke-width:1;" x1="174.38" x2="174.38" y1="135" y2="127"/><line style="stroke:#000000;stroke-width:1;" x1="175.38" x2="167.38" y1="131" y2="131"/><line style="stroke:#000000;stroke-width:1;" x1="250.74" x2="258.74" y1="131" y2="125"/><line style="stroke:#000000;stroke-width:1;" x1="250.74" x2="258.74" y1="131" y2="137"/><line style="stroke:#000000;stroke-width:1;" x1="250.74" x2="258.74" y1="131" y2="131"/><ellipse cx="244.74" cy="131" fill="none" rx="4" ry="4" style="stroke:#000000;stroke-width:1;"/></g><!--link chunk to edge--><g class="link" data-entity-1="chunk" data-entity-2="edge" data-source-line="38" data-uid="lnk27" id="link_chunk_edge"><path codeLine="38" d="M165.664,283.3774 C197.784,288.9074 229.5019,294.3705 259.5919,299.5605" fill="none" id="chunk-edge" style="stroke:#000000;stroke-width:1;"/><line style="stroke:#000000;stroke-width:1;" x1="161.0433" x2="162.4007" y1="286.6407" y2="278.7567"/><line style="stroke:#000000;stroke-width:1;" x1="163.9998" x2="165.3572" y1="287.1497" y2="279.2657"/><line style="stroke:#000000;stroke-width:1;" x1="165.664" x2="157.78" y1="283.3774" y2="282.02"/><line style="stroke:#000000;stroke-width:1;" x1="269.4464" x2="278.3498" y1="301.2602" y2="296.7073"/><line style="stroke:#000000;stroke-width:1;" x1="269.4464" x2="276.3102" y1="301.2602" y2="308.5327"/><line style="stroke:#000000;stroke-width:1;" x1="269.4464" x2="277.33" y1="301.2602" y2="302.62"/><ellipse cx="263.5337" cy="300.2404" fill="none" rx="4" ry="4" style="stroke:#000000;stroke-width:1;"/><text fill="#000000" font-family="Verdana" font-size="13" lengthAdjust="spacing" textLength="30.5386" x="198" y="285.0669">from</text></g><!--link edge to chunk--><g class="link" data-entity-1="edge" data-entity-2="chunk" data-source-line="39" data-uid="lnk28" id="link_edge_chunk"><path codeLine="39" d="M260.2133,318.0762 C239.7733,324.2262 224.19,325.96 197,318 C179.2,312.79 167.9097,305.7716 155.9597,296.2616" fill="none" id="edge-chunk" style="stroke:#000000;stroke-width:1;"/><line style="stroke:#000000;stroke-width:1;" x1="269.7892" x2="275.7213" y1="315.195" y2="307.1444"/><line style="stroke:#000000;stroke-width:1;" x1="269.7892" x2="279.1787" y1="315.195" y2="318.6356"/><line style="stroke:#000000;stroke-width:1;" x1="269.7892" x2="277.45" y1="315.195" y2="312.89"/><ellipse cx="264.0437" cy="316.9237" fill="none" rx="4" ry="4" style="stroke:#000000;stroke-width:1;"/><line style="stroke:#000000;stroke-width:1;" x1="150.3391" x2="155.3206" y1="296.9006" y2="290.6409"/><line style="stroke:#000000;stroke-width:1;" x1="152.6865" x2="157.668" y1="298.7687" y2="292.509"/><line style="stroke:#000000;stroke-width:1;" x1="155.9597" x2="149.7" y1="296.2616" y2="291.28"/><text fill="#000000" font-family="Verdana" font-size="13" lengthAdjust="spacing" textLength="13.0508" x="206.5" y="314.0669">to</text></g><!--SRC=[TL3BRiCW4Bpp5JHtvmEYVael1Ayn2WOBhwLMfl_UnRjOZf9UOFOrkpC11jIOTFPkHDtx31PzYagf3nnX0Zq7uoaC__MDlWSzmNI7l71WVRO1bBB1B8iUF666znziS3OP1M9wG1JiSbfd7vs4reGWS463T4viKtPSuqFm9GDTQVVoLqJunejKJ7RhQGXwHtTvQia3zUi5t5wLNt-MwvLFUygyurTLbowbwzB6mkgZVrFNbS8SdAWTfOaaFVjCsIIplqnJ3lNwLkKIWrJJQpNDwd2aCR9RrHSUsSwcjSsKFKnfeEr_fxCP8RCdHbx4wMeitJNaDAaTYm_ST2EnVm00]--></g></svg>